<?xml version="1.0" encoding="UTF-8" standalone="no"?>
<!-- Created with Inkscape (http://www.inkscape.org/) -->

<svg
   xmlns:dc="http://purl.org/dc/elements/1.1/"
   xmlns:cc="http://creativecommons.org/ns#"
   xmlns:rdf="http://www.w3.org/1999/02/22-rdf-syntax-ns#"
   xmlns:svg="http://www.w3.org/2000/svg"
   xmlns="http://www.w3.org/2000/svg"
   xmlns:sodipodi="http://sodipodi.sourceforge.net/DTD/sodipodi-0.dtd"
   xmlns:inkscape="http://www.inkscape.org/namespaces/inkscape"
   width="151.7774mm"
   height="154.42323mm"
   viewBox="0 0 151.7774 154.42323"
   version="1.1"
   id="svg18"
   sodipodi:docname="digitalis.svg"
   inkscape:version="0.92.2 5c3e80d, 2017-08-06"
   inkscape:export-filename="/home/nobrakal/Images/digitalis.svg.png"
   inkscape:export-xdpi="100.0755"
   inkscape:export-ydpi="100.0755">
  <defs
     id="defs12" />
  <sodipodi:namedview
     id="base"
     pagecolor="#ffffff"
     bordercolor="#666666"
     borderopacity="1.0"
     inkscape:pageopacity="0.0"
     inkscape:pageshadow="2"
     inkscape:zoom="0.35355339"
     inkscape:cx="-473.65027"
     inkscape:cy="26.578931"
     inkscape:document-units="mm"
     inkscape:current-layer="layer2"
     showgrid="false"
     inkscape:window-width="1920"
     inkscape:window-height="1025"
     inkscape:window-x="0"
     inkscape:window-y="27"
     inkscape:window-maximized="1"
     showguides="false" />
  <metadata
     id="metadata15">
    <rdf:RDF>
      <cc:Work
         rdf:about="">
        <dc:format>image/svg+xml</dc:format>
        <dc:type
           rdf:resource="http://purl.org/dc/dcmitype/StillImage" />
      </cc:Work>
    </rdf:RDF>
  </metadata>
  <g
     inkscape:groupmode="layer"
     id="layer2"
     inkscape:label="Calque 2"
     transform="translate(-27.298822,-57.598809)">
    <ellipse
       id="path103"
       cx="103.18752"
       cy="134.81042"
       rx="75.404701"
       ry="76.727615"
       style="fill:#ffffff;fill-opacity:1;stroke:#000000;stroke-width:0.96799999;stroke-miterlimit:4;stroke-dasharray:none;stroke-opacity:1" />
    <g
       id="g819"
       style="fill:#ffffff;fill-opacity:1">
      <path
         inkscape:connector-curvature="0"
         d="m 129.18152,107.11867 c -1.5574,-0.006 -2.97569,-0.75675 -3.53849,-1.71762 -1.6165,-2.75986 -2.744,-6.538627 -4.48793,-9.516037 -2.71752,-4.63962 -12.40072,-9.905921 -16.68845,-13.484591 m -4.516315,32.755618 c -6.843109,-2.07405 -7.464869,-12.69652 -10.19864,-17.363887 -1.715619,-2.9291 -2.85564,-4.45406 -4.07253,-7.27365 m 3.578342,2.36845 c -4.652193,-1.04121 -5.765663,-6.507371 -5.215742,-10.967031 -7.6921,-2.50319 -19.7393,5.710309 -26.75165,7.838589 M 111.92498,101.75057 C 108.77204,90.582833 104.44661,77.628152 88.965015,78.405562 m 15.501635,3.99486 c 9.16356,3.613971 15.49046,3.76268 25.00735,1.373241 -12.43055,3.87002 -26.19217,-7.943651 -40.508985,-5.368101 M 107.68397,201.99674 c 7.39638,-6.90288 9.65326,-15.08931 10.96079,-22.55053 7.46593,0.66832 18.4155,-6.43036 20.62744,-11.78035 6.57937,-0.55422 13.53846,-2.39476 14.3317,-8.48909 -3.93368,1.29801 -7.34496,1.88621 -10.52941,-0.24968 -11.45017,-6.33472 -12.0812,-17.87252 -15.23424,-28.19859 -3.95894,-10.35547 -15.15069,-24.44006 -15.91527,-28.97793 6.4855,3.9904 10.51639,7.077 17.25654,5.3681 m -16.23284,77.77505 c 2.3745,6.94787 0.28003,12.36974 -5.26471,17.10302 -0.65882,-6.68621 1.7058,-12.03958 5.26471,-17.10302 z M 89.257507,92.886953 c 21.619353,10.081747 3.267577,47.808777 5.703429,61.670757 1.191851,11.56642 13.792264,20.78541 17.987744,30.33601 M 89.066412,78.41383 c -12.03648,-2.68092 -23.222778,5.080839 -32.269064,8.855108 l 0.937331,2.723652 v 0"
         style="opacity:1;fill:#ffffff;fill-opacity:1;stroke:#000000;stroke-width:0.73400003;stroke-linecap:butt;stroke-linejoin:miter;stroke-miterlimit:4;stroke-dasharray:none;stroke-opacity:1"
         id="path56"
         sodipodi:nodetypes="csscccccccccccccccccccccccccccccc" />
    </g>
    <path
       style="fill:#800080;fill-opacity:1;stroke-width:1.63275593;stroke:#800080;stroke-opacity:1;stroke-miterlimit:4;stroke-dasharray:none;paint-order:markers fill stroke"
       d="m 328.78267,501.9971 c 10e-4,-11.89638 -2.10962,-19.97294 -7.78902,-29.80633 -5.90984,-10.2324 -9.2974,-14.94818 -25.38811,-35.34252 -17.14506,-21.73069 -22.95623,-30.09107 -29.06445,-41.81434 -8.32745,-15.98257 -11.2229,-31.70364 -9.44234,-51.26799 0.79993,-8.78941 3.07475,-22.98324 6.73128,-42 1.82425,-9.4875 4.18574,-21.975 5.24775,-27.75 8.95972,-48.72095 9.2393,-79.55447 0.93475,-103.09001 -6.80816,-19.29469 -20.86091,-33.81916 -39.07986,-40.39169 -6.63546,-2.39376 -11.86566,-9.59372 -14.17849,-19.5183 -0.71229,-3.05653 -0.92866,-5.91956 -0.91731,-12.13834 l 0.0148,-8.138343 -2.51484,-0.802966 c -3.92881,-1.254428 -15.08619,-1.477339 -21.38188,-0.427184 -11.03202,1.8402 -23.82202,6.327874 -43.13297,15.134213 -18.5069,8.43967 -25.64367,11.6062 -29.53783,13.10571 l -3.65708,1.40821 -1.02407,-3.03245 c -0.56325,-1.66785 -0.96939,-3.07795 -0.90255,-3.13354 0.0668,-0.0556 1.92153,-0.89067 4.12153,-1.8557 2.2,-0.96504 10.35949,-4.82249 18.13221,-8.57212 33.98809,-16.396184 48.82787,-21.549876 68.61778,-23.830206 6.26561,-0.721966 18.89351,-0.33202 24.75,0.764273 2.2,0.411824 6.5875,0.754524 9.75,0.761556 28.11521,0.06251 48.96446,14.062676 63.2236,42.454327 4.77823,9.51401 11.23744,27.28034 15.01616,41.30256 1.89363,7.02694 2.5552,8.7899 5.56142,14.82021 3.50462,7.03008 5.51757,10.40784 20.96516,35.17979 15.0504,24.13501 21.18247,34.63626 27.00711,46.25 7.0579,14.07274 7.78545,16.18022 14.23746,41.24129 7.54039,29.28862 12.23948,41.44406 21.3621,55.25871 5.30523,8.03387 15.11131,17.82953 23.23187,23.2072 12.53636,8.30194 17.78991,10.10833 28.08646,9.65731 4.36025,-0.19099 7.63551,-0.67115 11.68366,-1.71284 6.59482,-1.69701 6.5295,-1.76083 3.87258,3.78324 -3.18682,6.64978 -10.09529,12.54593 -18.74758,16.00045 -7.75679,3.09699 -18.76039,5.56258 -28.42034,6.36819 l -3.94478,0.32898 -1.11765,2.30874 c -7.54036,15.5761 -34.45346,34.46237 -57.39684,40.27821 -4.98662,1.26405 -13.13492,2.23785 -17.56502,2.09921 l -2.19464,-0.0687 -1.88191,9.36541 c -2.85635,14.21477 -6.88505,27.30072 -11.42662,37.11577 l -1.84215,3.98117 5e-4,-7.48117 z"
       id="path821"
       inkscape:connector-curvature="0"
       transform="matrix(0.26458333,0,0,0.26458333,27.298822,57.598809)" />
    <path
       style="fill:#800080;fill-opacity:1;stroke:#800080;stroke-width:1.53070868;stroke-miterlimit:4;stroke-dasharray:none;stroke-opacity:1;paint-order:markers fill stroke"
       d="m 305.16696,534.35046 c 0.86561,-13.20859 4.14575,-24.72596 10.40364,-36.52967 4.8607,-9.16832 7.14446,-12.49956 7.78298,-11.35277 1.04032,1.86845 2.06415,9.47338 2.06415,15.33228 0,10.29371 -3.2718,20.01041 -9.35753,27.79024 -4.92216,6.29236 -9.95605,11.89982 -10.68261,11.89982 -0.41941,0 -0.49985,-2.72672 -0.21063,-7.1399 z"
       id="path823"
       inkscape:connector-curvature="0"
       transform="matrix(0.26458333,0,0,0.26458333,27.298822,57.598809)" />
    <path
       style="fill:#000000;fill-opacity:1;stroke:#800080;stroke-width:1.53070867;stroke-miterlimit:4;stroke-dasharray:none;stroke-opacity:1;paint-order:markers fill stroke"
       d="M 260.35797,578.29263 C 196.17595,572.20243 135.03264,543.17668 88.857971,496.87874 34.171689,442.04646 4.379383,369.74848 4.379383,291.87172 c 0,-98.10773 48.021235,-187.88611 129.240307,-241.621977 34.48373,-22.814994 71.36555,-36.819822 114.73828,-43.5686144 16.37581,-2.5480743 60.62419,-2.5480743 77,0 62.68429,9.7536684 115.76582,36.4359464 159.51023,80.1803574 43.72714,43.727144 71.85443,99.750654 81.6439,162.617054 1.92565,12.36625 2.24128,18.3363 2.24128,42.39318 0,31.73294 -1.46045,44.619 -8.01093,70.68302 -20.48946,81.52662 -74.43807,149.48731 -148.16461,186.64745 -32.48009,16.37084 -65.30207,25.86984 -100.71987,29.14932 -12.5595,1.16294 -38.94167,1.13278 -51.5,-0.0589 z m 50.69109,-37.17091 c 16.06868,-16.57369 27.33038,-39.43854 33.4907,-67.99688 l 2.31821,-10.74689 4.59004,-0.003 c 20.77763,-0.0141 57.12729,-20.31674 69.40996,-38.76804 l 4,-6.00889 6.1648,-0.63221 c 14.70187,-1.50772 30.79972,-7.40509 38.0205,-13.92863 4.80152,-4.33789 8.98953,-11.77968 9.92639,-17.63846 0.64188,-4.01407 0.54625,-4.29955 -1.2073,-3.60428 -1.04741,0.41529 -5.47954,1.66928 -9.84917,2.78666 -15.09901,3.86103 -25.03191,1.24543 -40.48504,-10.66078 -19.35135,-14.90971 -28.04377,-31.51889 -39.59208,-75.65127 -6.28077,-24.0022 -7.50733,-27.35654 -15.86888,-43.39722 -6.20482,-11.90326 -10.4401,-19.04608 -30.94798,-52.19404 -11.62336,-18.78744 -18.11104,-30.18949 -17.5161,-30.78443 0.20999,-0.20999 2.85074,1.19539 5.86833,3.12307 8.17334,5.22124 21.78914,11.92233 27.9304,13.74609 5.46325,1.62241 19.05712,2.15911 24.93113,0.98431 4.78434,-0.95687 4.08661,-3.703 -1.30739,-5.14567 -5.94511,-1.59008 -8.1472,-4.704 -15.92688,-22.5218 -7.89081,-18.07231 -11.05459,-23.07344 -19.50577,-30.83366 -6.2822,-5.76857 -22.73913,-18.03071 -35.40004,-26.37673 -3.17079,-2.09018 -5.64579,-3.90568 -5.5,-4.03444 0.1458,-0.12877 4.54008,0.91783 9.76508,2.32577 8.59413,2.31581 11.35941,2.56713 29,2.63572 16.705,0.0649 21.18546,-0.26247 31.25904,-2.28431 6.46747,-1.29806 11.95028,-2.66955 12.18402,-3.04774 0.23373,-0.3782 0.0553,-1.285692 -0.3964,-2.016651 -0.65325,-1.056978 -1.81672,-1.107751 -5.68402,-0.248045 -18.11429,4.026726 -30.53812,2.071316 -77.36264,-12.176371 -29.68401,-9.032201 -34.09111,-9.791006 -60.5,-10.416768 -31.87276,-0.75523 -39.78746,-0.546854 -49,1.290058 -13.07255,2.60657 -30.25925,8.832835 -49.70869,18.008087 -10.06022,4.745899 -21.89131,10.2536 -26.29131,12.23933 -4.4,1.98573 -8.15835,3.72025 -8.35188,3.85448 -0.44194,0.30652 2.5861,9.40802 3.7301,11.21171 1.0213,1.61023 6.68483,-0.55132 33.62178,-12.83215 25.04461,-11.418093 39.48789,-16.155301 51.15817,-16.779223 14.4281,-0.771363 13.98431,-1.098295 14.55347,10.721363 0.45162,9.37882 0.76307,10.56463 5.19115,19.76468 2.59088,5.38299 8.03036,15.41225 12.08773,22.28725 5.86708,9.94147 8.42744,15.67258 12.50892,28 8.80482,26.5935 15.47981,37.85406 25.53317,43.07388 l 4.67269,2.42612 -0.63714,9 c -0.95069,13.42908 -4.0601,33.68293 -10.07166,65.60406 -7.71221,40.95149 -8.82691,49.88059 -8.16392,65.39594 0.67404,15.7739 2.18027,21.71945 9.12906,36.03503 5.81004,11.96957 14.50682,24.60964 33.00146,47.96497 11.96252,15.10645 20.86633,27.92039 24.06435,34.63224 1.72995,3.63075 1.72941,3.63408 -1.31577,8.0601 -8.77935,12.76034 -15.47896,30.98361 -16.75072,45.56273 -0.71841,8.2357 0.0294,17.24493 1.43131,17.24493 0.42335,0 3.93282,-3.2625 7.79882,-7.25 z"
       id="path825"
       inkscape:connector-curvature="0"
       transform="matrix(0.26458333,0,0,0.26458333,27.298822,57.598809)" />
  </g>
  <g
     inkscape:label="Calque 1"
     inkscape:groupmode="layer"
     id="layer1"
     transform="translate(-27.298822,-57.598809)" />
</svg>
